<?xml version="1.0" standalone="no"?><svg xmlns:xlink="http://www.w3.org/1999/xlink" xmlns="http://www.w3.org/2000/svg" viewBox="0 0 1000 705.886702296038" preserveAspectRatio="xMaxYMax slice"><g transform="scale(1.1552973850998987)"><rect x="0" y="0" width="865.5833333333333" height="611" fill="#06080D"/><g transform="translate(203.67,0) scale(2.5460000000000003) rotate(0)"><rect width="20" height="2" fill="#0f1015"/><rect y="4" width="20" height="2" fill="#0f1015"/><rect y="8" width="20" height="2" fill="#0f1015"/><rect y="12" width="20" height="2" fill="#0f1015"/><rect y="16" width="20" height="2" fill="#0f1015"/></g><g transform="translate(254.58,50.92) scale(2.5460000000000003) rotate(0)"><rect width="20" height="2" fill="#103f60"/><rect y="4" width="20" height="2" fill="#103f60"/><rect y="8" width="20" height="2" fill="#103f60"/><rect y="12" width="20" height="2" fill="#103f60"/><rect y="16" width="20" height="2" fill="#103f60"/></g><rect x="814.6666666666666" y="50.916666666666664" width="50.916666666666664" height="50.916666666666664" fill="#06080D"/><g transform="translate(661.92,152.75) scale(2.5460000000000003) rotate(0)"><path d="M10 0H20V10L10 20H0V10L10 0Z" fill="#071019"/></g><g transform="translate(814.67,152.75) scale(2.5460000000000003) rotate(0)"><path d="M10 0H20L0 20V10L10 0Z" fill="#135179"/><path d="M20 10V20H10L20 10Z" fill="#135179"/></g><polygon points="712.83,203.67 763.75,203.67 763.75,254.58999999999997" fill="#06080d"/><polygon points="611,254.58 611,305.5 560.08,305.5" fill="#187bd2"/><g transform="translate(814.67,305.5) scale(2.5460000000000003) rotate(0)"><path d="M10 0H20V10L10 20H0V10L10 0Z" fill="#155c8a"/></g><g transform="translate(407.33,356.42) scale(2.5460000000000003) rotate(0)"><path d="M10 0H20V10L10 20H0V10L10 0Z" fill="#114568"/></g><g transform="translate(509.17,407.33) scale(2.5460000000000003) rotate(0)"><rect width="20" height="10" fill="#1f94dd"/></g><g transform="translate(101.83,458.25) scale(2.5460000000000003) rotate(0)"><rect width="20" height="2" fill="#2c5773"/><rect y="4" width="20" height="2" fill="#2c5773"/><rect y="8" width="20" height="2" fill="#2c5773"/><rect y="12" width="20" height="2" fill="#2c5773"/><rect y="16" width="20" height="2" fill="#2c5773"/></g><g transform="translate(458.25,458.25) scale(2.5460000000000003) rotate(0)"><path d="M10 0H20L0 20V10L10 0Z" fill="#1e8acf"/><path d="M20 10V20H10L20 10Z" fill="#1e8acf"/></g><polygon points="611,458.25 611,509.17 560.08,509.17" fill="#1d1f24"/><g transform="translate(101.83,509.17) scale(2.5460000000000003) rotate(0)"><rect width="20" height="2" fill="#070e17"/><rect y="4" width="20" height="2" fill="#070e17"/><rect y="8" width="20" height="2" fill="#070e17"/><rect y="12" width="20" height="2" fill="#070e17"/><rect y="16" width="20" height="2" fill="#070e17"/></g><g transform="translate(152.75,509.17) scale(2.5460000000000003) rotate(0)"><rect width="20" height="2" fill="#4284ae"/><rect y="4" width="20" height="2" fill="#4284ae"/><rect y="8" width="20" height="2" fill="#4284ae"/><rect y="12" width="20" height="2" fill="#4284ae"/><rect y="16" width="20" height="2" fill="#4284ae"/></g><rect x="763.75" y="509.16666666666663" width="50.916666666666664" height="50.916666666666664" fill="#06080D"/><g transform="translate(814.67,509.17) scale(2.5460000000000003) rotate(0)"><path d="M10 0H20L0 20V10L10 0Z" fill="#2e5976"/><path d="M20 10V20H10L20 10Z" fill="#2e5976"/></g><g transform="translate(152.75,560.08) scale(2.5460000000000003) rotate(0)"><path d="M10 0H20L0 20V10L10 0Z" fill="#224157"/><path d="M20 10V20H10L20 10Z" fill="#224157"/></g><g transform="translate(356.42,560.08) scale(2.5460000000000003) rotate(0)"><rect width="20" height="10" fill="#383a3e"/></g></g></svg>